<mxfile host="app.diagrams.net" modified="2024-06-09T01:24:22.854Z" agent="Mozilla/5.0 (Windows NT 10.0; Win64; x64) AppleWebKit/537.36 (KHTML, like Gecko) Chrome/125.0.0.0 Safari/537.36" version="24.5.2" etag="APBcC3pCQ3xiFsEHthi5" type="github">
  <diagram name="Page-1" id="_hA5Fpzjcf8ttK5N8y-m">
    <mxGraphModel>
      <root>
        <mxCell id="0" />
        <mxCell id="1" parent="0" />
      </root>
    </mxGraphModel>
  </diagram>
</mxfile>
